<?xml version="1.0" standalone="no"?>
<!DOCTYPE svg PUBLIC "-//W3C//DTD SVG 20010904//EN"
 "http://www.w3.org/TR/2001/REC-SVG-20010904/DTD/svg10.dtd">
<svg version="1.0" xmlns="http://www.w3.org/2000/svg"
 width="16.000000pt" height="16.000000pt" viewBox="0 0 16.000000 16.000000"
 preserveAspectRatio="xMidYMid meet">
<metadata>
Created by potrace 1.11, written by Peter Selinger 2001-2013
</metadata>
<g transform="translate(0.000000,16.000000) scale(0.010667,-0.010667)"
fill="#000000" stroke="none">
<path d="M780 1250 c-76 -17 -111 -29 -120 -39 -3 -4 -41 -16 -85 -28 -44 -12
-120 -33 -170 -48 -99 -28 -204 -50 -279 -59 -58 -7 -75 -26 -76 -81 0 -78 36
-83 179 -26 54 21 122 45 150 52 78 20 82 9 47 -146 -9 -38 -20 -93 -25 -120
-5 -28 -19 -79 -31 -115 -31 -91 -59 -284 -51 -341 14 -90 60 -139 132 -139
28 0 48 11 101 54 74 61 178 181 203 232 21 45 35 51 36 17 2 -76 34 -150 86
-199 36 -34 41 -36 96 -32 52 4 62 8 103 49 101 98 167 316 180 594 3 72 8
133 10 137 3 4 5 33 5 66 1 71 -13 104 -44 100 -26 -4 -35 -44 -37 -158 0 -41
-7 -127 -15 -190 -35 -287 -55 -361 -124 -437 -61 -68 -82 -73 -114 -31 -46
62 -97 272 -82 345 15 79 13 88 -23 91 -45 4 -58 -9 -66 -69 -8 -60 -67 -227
-98 -278 -34 -56 -118 -149 -154 -172 -19 -11 -46 -19 -61 -17 -28 3 -28 4
-31 83 -2 75 29 235 100 510 5 22 11 78 12 125 l3 85 79 23 c43 13 102 30 129
39 28 8 82 16 122 17 39 0 75 5 79 9 18 18 8 76 -16 96 -30 24 -51 24 -150 1z"/>
</g>
</svg>
